<svg xmlns="http://www.w3.org/2000/svg" xml:space="preserve" style="enable-background:new 0 0 24 24" viewBox="0 0 24 24"><path d="M12.3 4.5v15.2h.1c.3.2.7.2 1 .1.3-.1.6-.3.8-.5.2-.3.3-.6.3-1 0-.3-.2-.7-.5-.9-.1-.1-.1-.3 0-.4.1-.1.3-.1.4 0 .2.2.3.4.5.6h.4c.1 0 .2-.1.3-.2.1-.1.1-.2.1-.4 0-.1 0-.3-.1-.4-.2 0-.3 0-.5-.1-.1 0-.2-.2-.2-.3 0-.1.2-.2.3-.2.3.1.6 0 .8-.1.3-.1.5-.3.6-.6.2-.3.2-.6.2-.8s-.2-.6-.4-.8c-.1-.1-.1-.3 0-.4.1-.1.3-.1.4 0 .1.1.2.3.3.4.3-.2.5-.6.5-.9.1-.4 0-.8-.1-1.1-.1.1-.3.2-.4.2-.1.1-.3 0-.3-.1-.1-.1 0-.3.1-.3.3-.1.6-.3.7-.6.2-.3.3-.6.3-.9 0-.3-.1-.6-.2-.9-.2-.3-.4-.5-.7-.6-.3-.1-.6-.2-.9-.2-.3 0-.6.1-.9.3-.1.1-.3.1-.4 0-.1-.1-.1-.3 0-.4.3-.3.7-.4 1.1-.5h.5c0-.2 0-.3-.1-.4-.1-.2-.2-.4-.3-.5-.1-.1-.3-.3-.5-.3-.1 0-.2-.1-.3-.1v.1c0 .1-.2.2-.3.2s-.2-.2-.2-.3c.1-.2 0-.4 0-.6-.1-.2-.2-.4-.3-.5l-.6-.3c-.2 0-.4 0-.6.1-.1.1-.3 0-.3-.2v-.4c0-.1-.1-.1-.2-.2-.1 0-.2-.1-.2-.1s-.2 0-.2.1c.1.2 0 .2 0 .2zm.8 4.2c-.1-.1-.1-.3 0-.4.1-.1.3-.1.4 0 .3.4.5.8.5 1.2v.2l.1.1h.1c.1 0 .1 0 .1-.1l.1-.1c.1-.1.2-.2.4-.1.1.1.2.2.1.4l-.3.3c-.1.1-.2.1-.3.1h-.5c0 .2-.1.4-.2.5-.1.1-.2.2-.4.1-.1-.1-.2-.2-.1-.4.2-.3.2-.7.2-1 .1-.2 0-.6-.2-.8zm1.7 4.5c0 .2 0 .4.1.6.1.2.2.4.4.6.1.1.1.3.1.4-.1.1-.3.1-.4.1-.3-.2-.5-.5-.6-.8-.1-.2-.2-.5-.2-.7-.2.1-.3.2-.4.4-.1.2-.2.3-.2.5 0 .1-.2.2-.3.2-.1 0-.2-.2-.2-.3 0-.3.2-.5.3-.8.2-.2.4-.4.6-.5.3-.1.5-.2.8-.2.3 0 .5.1.8.2.1.1.2.2.1.4-.1.1-.2.2-.4.1-.1-.2-.3-.2-.5-.2zm-1.3-6.9c0-.1.2-.2.3-.2.1 0 .2.2.2.3v.2c0 .1 0 .1.1.2l.1.1s.1 0 .2.1c.1 0 .3.1.2.3s-.1.3-.3.2c-.1 0-.3-.1-.4-.1l-.3-.3c-.1-.1-.1-.2-.1-.4-.1-.1 0-.2 0-.4zm2.1 4.8c-.1-.1-.1-.3 0-.4.1-.1.3-.1.4 0 .1.1.2.3.3.5.1.2.1.4.1.6 0 .1-.1.3-.3.2-.1 0-.3-.1-.2-.3v-.4c-.2 0-.2-.1-.3-.2zm-2.2 5.7c.1.1 0 .3-.1.4-.1.1-.3 0-.4-.1-.1-.2-.1-.4-.2-.5 0-.2 0-.4.1-.5.1-.2.2-.3.4-.4.2-.1.3-.1.5-.1.1 0 .3.1.3.3 0 .1-.1.3-.3.3-.1 0-.2 0-.3.1-.1 0-.2.1-.2.2s-.1.2-.1.3c.3-.2.3-.1.3 0zm-9.2-6.4c.2 0 .4.2.4.4s-.2.4-.4.4H1.6c-.2 0-.4-.2-.4-.4s.2-.4.4-.4h2.6zm7.4-10c0-.2.2-.4.4-.4s.4.2.4.4V3c0 .2-.2.4-.4.4s-.4-.2-.4-.4V.4zM6.2 16c.2-.2.4-.2.6 0 .2.2.2.4 0 .6L5 18.4c-.2.2-.4.2-.6 0-.2-.2-.2-.4 0-.6L6.2 16zM19.1 3.2c.2-.2.4-.2.6 0 .2.2.2.4 0 .6l-1.8 1.8c-.2.2-.4.2-.6 0-.2-.2-.2-.4 0-.6-.1 0 1.8-1.8 1.8-1.8zm-1.9 13.4c-.2-.2-.2-.4 0-.6.2-.2.4-.2.6 0l1.8 1.8c.2.2.2.4 0 .6-.2.2-.4.2-.6 0 .1 0-1.8-1.8-1.8-1.8zM4.4 3.7c-.2-.2-.2-.4 0-.6s.4-.2.6 0L6.8 5c.2.2.2.4 0 .6-.2.2-.4.2-.6 0L4.4 3.7zm18 6.7c.2 0 .4.2.4.4s-.2.4-.4.4h-2.6c-.2 0-.4-.2-.4-.4s.2-.4.4-.4h2.6zm-8.6 12.3c0 .3-.2.7-.4.9-.3.3-.6.4-1 .4h-.7c-.4 0-.7-.2-1-.4-.2-.2-.4-.5-.4-.9-.2 0-.4-.2-.4-.4s.2-.4.4-.4h3.4c.2 0 .4.2.4.4s-.1.4-.3.4zm-2.7 0c0 .1.1.2.2.3.1.1.3.2.4.2h.7c.2 0 .3-.1.4-.2.1-.1.1-.2.2-.3h-1.9zM10 21.4c-.2 0-.4-.2-.4-.4s.2-.4.4-.4h4c.2 0 .4.2.4.4s-.2.4-.4.4h-4zm1.7-1.3V4.3c-1.7.1-3.1.8-4.2 1.9-1.2 1.2-1.9 2.7-1.9 4.5 0 .9.2 1.8.5 2.6.4.8.9 1.5 1.5 2.1.6.5 1 1.1 1.3 1.8.3.7.5 1.4.5 2.2 0 .2.1.3.2.5.1.1.3.2.5.2h1.6z"/></svg>