<svg xmlns="http://www.w3.org/2000/svg" xml:space="preserve" style="enable-background:new 0 0 355 380" viewBox="0 0 355 380"><g id="company_name"><path d="M9.9 379.3H0v-42.4h9.9v42.4zm19.9-17.4H9.1v-8.3h20.7v8.3zm-.7-25h9.8v42.4h-9.8v-42.4zM64.5 379.8c-3.7 0-7-.7-9.8-2.2-2.8-1.5-4.9-3.4-6.5-6-1.5-2.5-2.3-5.4-2.3-8.6 0-3.2.7-6.1 2.2-8.7 1.5-2.5 3.5-4.5 6.2-6 2.6-1.4 5.6-2.2 8.9-2.2 3.2 0 6.1.7 8.6 2.1 2.6 1.4 4.6 3.3 6.1 5.8s2.2 5.5 2.2 9c0 .4 0 .8-.1 1.2 0 .5-.1.9-.1 1.3H53.6V360h21.5l-3.7 1.6c0-1.7-.3-3.2-1-4.4-.7-1.3-1.6-2.2-2.8-2.9-1.2-.7-2.6-1.1-4.2-1.1s-3 .4-4.3 1.1c-1.2.7-2.2 1.7-2.9 3-.7 1.3-1 2.8-1 4.5v1.5c0 1.8.4 3.4 1.2 4.7.8 1.3 1.9 2.4 3.3 3.1 1.4.7 3.1 1.1 5.1 1.1 1.7 0 3.2-.3 4.5-.8 1.3-.5 2.5-1.3 3.6-2.4l5 5.5c-1.5 1.7-3.4 3-5.6 3.9-2.3.9-4.9 1.4-7.8 1.4zM86.5 379.3v-32.6h9v9.3l-1.3-2.7c1-2.3 2.5-4 4.7-5.2 2.1-1.2 4.7-1.8 7.8-1.8v8.8c-.4-.1-.7-.1-1.1-.2-.3 0-.7-.1-1-.1-2.7 0-4.8.7-6.4 2.2-1.6 1.5-2.4 3.8-2.4 6.9v15.4h-9.3zM123.6 379.8c-2.8 0-5.5-.3-8-1s-4.6-1.5-6.1-2.5l3.1-6.7c1.5.9 3.3 1.6 5.4 2.2 2 .6 4 .9 6 .9 2.2 0 3.7-.3 4.6-.8.9-.5 1.4-1.3 1.4-2.2 0-.8-.4-1.3-1.1-1.7-.7-.4-1.6-.7-2.8-.9-1.2-.2-2.4-.4-3.8-.6-1.4-.2-2.8-.5-4.2-.8-1.4-.4-2.7-.9-3.9-1.5-1.2-.7-2.1-1.6-2.8-2.8-.7-1.2-1.1-2.7-1.1-4.5 0-2.1.6-3.9 1.8-5.5 1.2-1.6 2.9-2.8 5.2-3.7 2.2-.9 4.9-1.3 8.1-1.3 2.3 0 4.5.3 6.8.8s4.2 1.2 5.8 2.1l-3.2 6.7c-1.5-.9-3.1-1.5-4.7-1.9-1.6-.4-3.1-.5-4.6-.5-2.2 0-3.8.3-4.7.8-1 .6-1.5 1.3-1.5 2.2 0 .8.4 1.4 1.1 1.8.7.4 1.7.7 2.8.9 1.2.2 2.5.4 3.9.6 1.4.2 2.8.5 4.2.8 1.4.4 2.7.9 3.8 1.5 1.2.7 2.1 1.6 2.8 2.8.7 1.2 1.1 2.7 1.1 4.5 0 2-.6 3.7-1.8 5.3-1.2 1.6-3 2.8-5.2 3.7-2.4.8-5.1 1.3-8.4 1.3zM160.9 379.8c-3.7 0-7-.7-9.8-2.2-2.8-1.5-4.9-3.4-6.5-6-1.5-2.5-2.3-5.4-2.3-8.6 0-3.2.7-6.1 2.2-8.7 1.5-2.5 3.5-4.5 6.2-6 2.6-1.4 5.6-2.2 8.9-2.2 3.2 0 6.1.7 8.6 2.1 2.6 1.4 4.6 3.3 6.1 5.8s2.2 5.5 2.2 9c0 .4 0 .8-.1 1.2s-.1.9-.1 1.3H150V360h21.5l-3.7 1.6c0-1.7-.3-3.2-1-4.4-.7-1.3-1.6-2.2-2.8-2.9-1.2-.7-2.6-1.1-4.2-1.1s-3 .4-4.3 1.1c-1.2.7-2.2 1.7-2.9 3-.7 1.3-1 2.8-1 4.5v1.5c0 1.8.4 3.4 1.2 4.7.8 1.3 1.9 2.4 3.3 3.1 1.4.7 3.1 1.1 5.1 1.1 1.7 0 3.2-.3 4.5-.8 1.3-.5 2.5-1.3 3.6-2.4l5 5.5c-1.5 1.7-3.4 3-5.6 3.9-2.2.9-4.8 1.4-7.8 1.4zM202.8 346.2c2.6 0 4.9.5 6.9 1.5s3.6 2.6 4.8 4.7c1.2 2.1 1.8 4.8 1.8 8.1v18.7h-9.5V362c0-2.6-.6-4.6-1.7-5.8-1.2-1.3-2.8-1.9-4.9-1.9-1.5 0-2.8.3-4 1-1.2.6-2.1 1.6-2.8 2.8-.7 1.3-1 2.9-1 5v16.1H183v-32.6h9v9l-1.7-2.7c1.2-2.2 2.8-3.9 5-5s4.7-1.7 7.5-1.7zM239.4 380c-3.4 0-6.7-.5-9.8-1.4-3.1-.9-5.6-2.1-7.5-3.5l3.3-7.4c1.8 1.3 3.9 2.4 6.4 3.2 2.5.8 5 1.2 7.6 1.2 1.9 0 3.5-.2 4.7-.6 1.2-.4 2.1-.9 2.6-1.6.6-.7.8-1.4.8-2.3 0-1.1-.4-2-1.3-2.7-.9-.7-2.1-1.2-3.5-1.6-1.5-.4-3.1-.8-4.8-1.2-1.7-.4-3.5-.8-5.2-1.4-1.8-.5-3.4-1.3-4.8-2.2-1.5-.9-2.6-2.1-3.5-3.6-.9-1.5-1.3-3.3-1.3-5.5 0-2.4.6-4.6 1.9-6.6 1.3-2 3.3-3.6 5.9-4.8 2.6-1.2 6-1.8 10-1.8 2.7 0 5.3.3 7.9 1 2.6.6 4.9 1.6 6.8 2.8l-3.1 7.4c-1.9-1.1-3.9-1.9-5.9-2.5-2-.5-4-.8-5.8-.8-1.9 0-3.5.2-4.7.6-1.2.4-2 1-2.6 1.7-.5.7-.8 1.5-.8 2.4 0 1.1.4 2 1.3 2.7.9.7 2.1 1.2 3.5 1.6 1.5.4 3.1.8 4.8 1.2 1.8.4 3.5.9 5.3 1.4 1.7.6 3.3 1.3 4.8 2.2 1.5.9 2.6 2 3.5 3.5.9 1.5 1.4 3.3 1.4 5.5 0 2.4-.7 4.6-2 6.5-1.3 2-3.3 3.6-6 4.8-2.5 1.2-5.9 1.8-9.9 1.8zM263.4 379.3v-45h9.5v45h-9.5zM286.3 342.1c-1.8 0-3.2-.5-4.3-1.5s-1.6-2.3-1.6-3.8.5-2.7 1.6-3.8c1.1-1 2.5-1.5 4.3-1.5 1.7 0 3.2.5 4.3 1.4 1.1 1 1.7 2.2 1.7 3.7 0 1.6-.5 2.9-1.6 3.9-1.1 1.1-2.6 1.6-4.4 1.6zm-4.7 37.2v-32.6h9.5v32.6h-9.5zM341.6 346.2c2.6 0 4.9.5 6.9 1.5s3.6 2.6 4.7 4.7 1.7 4.8 1.7 8.1v18.7h-9.5V362c0-2.6-.5-4.6-1.6-5.8-1.1-1.3-2.6-1.9-4.5-1.9-1.4 0-2.7.3-3.8.9-1.1.6-1.9 1.6-2.5 2.8-.6 1.2-.9 2.8-.9 4.8v16.4h-9.5V362c0-2.6-.5-4.6-1.6-5.8-1.1-1.3-2.6-1.9-4.6-1.9-1.4 0-2.6.3-3.7.9-1.1.6-1.9 1.6-2.5 2.8-.6 1.2-.9 2.8-.9 4.8v16.4h-9.5v-32.6h9v8.8l-1.7-2.5c1.1-2.2 2.7-3.9 4.8-5.1 2.1-1.2 4.5-1.7 7.1-1.7 3 0 5.6.8 7.9 2.3s3.8 3.8 4.5 6.9l-3.3-.9c1.1-2.5 2.8-4.5 5.2-6 2.4-1.5 5.1-2.2 8.3-2.2z" fill="#4d0d0a"/></g><g id="LOGO"><path d="M131 101.1s7.5-16.8 16-18.8 30 4.7 30 4.7v133s-5 20.9-18.9 20.6c-13.9-.3-19.9-10.6-20.6-11.4-.7-.8-8.3-12.4-8.3-12.4s-18.8-4.4-20.9-12.9c-2.1-8.5-3.8-18.1-3.8-18.1s-12.8-8.7-11.2-26.6c1.6-17.9 14.1-25.7 14.1-25.7s-3.2-15.8 3.6-23.3c6.7-7.5 20-9.1 20-9.1z" fill="#eb7d8a" fill-rule="evenodd" clip-rule="evenodd"/><path d="m195.9 278.1 6.5-24.1s6.5-26.6 18.5-37c12-10.5 35.5-37.1 29-67.3-6.5-30.2-30.6-53.8-53.6-60.1-6.9-1.9-11.7-3-15.1-3.7v-.4s-.1-.7-4.1-.2v138.3s-2 5.9-9.9 15.7c-4 5-12.5 3.8-19.8 1.4 2.8 7.4 4.3 13.4 4.3 13.4l9.8 36.7 34.4-12.7z" style="fill-rule:evenodd;clip-rule:evenodd;fill:#f5f5f2"/><path d="M180.5 172.8v45.7c0 2.3-.2 4.5-.5 6.6-1.4 8.1-5.2 13.4-9.8 16.7-4.6 3.3-10 4.4-14.4 4.4-1.4 0-2.7-.1-3.9-.3-5.4-.9-12.1-5.1-17-11-3.3-3.9-5.9-8.7-6.8-13.9-3.5-.3-6.8-1.1-9.9-2.5-5.1-2.4-9.5-6.2-12.4-11.3-2.9-5-4.4-11.3-3.9-18.4-4.3-3-7.6-7.1-9.9-11.7-2.6-5.3-3.8-11.3-3.6-17.3.2-6 1.7-11.9 4.7-17 2.3-4 5.4-7.5 9.4-10.1-.7-2.1-1.1-4.2-1.3-6.2-.5-5.4.8-10.7 3.3-15.1s6.4-8.1 11-10.4c2.9-1.5 6.1-2.4 9.5-2.7 1.1-.1 2.2-.1 3.3-.1.5-3.4 1.7-6.3 3.4-8.9 2.8-4.3 7-7.4 11.8-9.4 4.6-1.9 9.8-2.8 14.9-2.8 6.8 0 13.5 1.6 18.7 4.4 21.3.2 40.6 8.9 54.7 22.9 14.2 14.2 22.9 33.7 22.9 55.4 0 12.6-3.1 24.9-8.7 35.8-5.4 10.5-13.2 19.9-23 27.1-14.7 11.1-15 30.8-15 31.7V254.7c-.1 1-.5 1.8-1.1 2.5l-.5.5-.1.1c-.4.3-.9.5-1.3.7l-49.9 15.9c-2.2.7-4.5-.5-5.2-2.7-.7-2.2.5-4.5 2.7-5.2l47.3-15c.6-6.8 3.5-23.2 16.6-34.1.2-.2.4-.4.7-.6 9.2-6.6 16.5-15.1 21.5-24.9 5-9.7 7.7-20.7 7.7-32 0-19.3-7.8-36.8-20.5-49.5C214 98.6 198.1 91 180.5 90v82.8zm-19.6 120.4c-2.2.7-4.5-.5-5.2-2.7-.7-2.2.5-4.5 2.7-5.2l36.8-11.7c2.2-.7 4.5.5 5.2 2.7.7 2.2-.5 4.5-2.7 5.2l-36.8 11.7zM136.4 99.6c9.5 3.3 13.6 11 13.6 11.1 1.1 2 .4 4.6-1.7 5.7-2 1.1-4.6.4-5.7-1.7 0 0-4.9-9.2-17.1-8.1-2.4.2-4.6.9-6.6 1.9-3.2 1.6-5.8 4.1-7.5 7.1-1.7 3-2.6 6.5-2.2 10.2.2 2 .7 4 1.6 6.1.2.2.4.5.5.8.1.3.2.5.3.8 6.9 12.7 21.5 16.8 21.5 16.8 2.2.6 3.5 3 2.8 5.2-.6 2.2-3 3.5-5.2 2.8 0 0-15.8-4.4-24.8-18-2.4 1.8-4.4 4.2-5.9 6.8-2.3 3.9-3.5 8.5-3.6 13.1-.1 4.6.8 9.3 2.8 13.4 1.9 3.9 4.9 7.3 8.8 9.6 1.6.9 2.4 2.7 2 4.5-.7 6.2.3 11.5 2.7 15.6 2 3.6 5 6.3 8.6 7.9 3.6 1.6 7.8 2.2 12.2 1.5h.3c5.7-1 11.7-4 17.2-9.6 1.6-1.6 4.3-1.7 5.9 0 1.6 1.6 1.7 4.3 0 5.9-6.6 6.7-13.9 10.5-21 11.9.8 3.3 2.6 6.4 4.8 9.1 3.7 4.4 8.4 7.5 12 8.1.7.1 1.6.2 2.5.2 3 0 6.6-.8 9.6-2.9 3-2.1 5.5-5.6 6.4-11.3.3-1.5.4-3.3.4-5.2v-19.8c0-4.5-1.5-9.9-5.2-13.9-2.8-3-7-5.3-12.9-5.7-5.7-.4-10.2 2-13.5 4.9-.2.3-.5.5-.8.7-3.9 3.7-5.8 7.9-5.9 8-1 2.1-3.4 3-5.5 2s-3-3.4-2-5.5c0 0 1.4-3 4.1-6.5-5.5-2.9-14.1-8.3-19.4-16.2-1.3-1.9-.8-4.5 1.1-5.8 1.9-1.3 4.5-.8 5.8 1.1 5.2 7.8 14.5 12.7 18.7 14.6 3.2-2.5 7.2-4.6 11.9-5.4 2.5-6.1 8.1-26-18.9-39.2-2.1-1-2.9-3.5-1.9-5.6 1-2.1 3.5-2.9 5.6-1.9 7.8 3.8 13.4 8.2 17.4 12.7 3-.6 8.2-2.2 8.8-6.2.4-2.3 2.5-3.8 4.8-3.5 2.3.4 3.8 2.5 3.5 4.8-1.1 7-7.2 10.5-12.1 12.1 5.3 10.4 3.7 20.7 1.7 26.8 6.3 1 11.1 3.6 14.7 7.1V115c-3.8-1.3-9.8-4.4-14.7-11.2-1.3-1.9-.9-4.5 1-5.8 1.9-1.3 4.5-.9 5.8 1 2.6 3.6 5.5 5.8 7.9 7V88.3c-3.8-1.9-8.8-2.9-13.8-2.9-4.1 0-8.2.7-11.8 2.1-3.3 1.4-6.2 3.4-8 6.3-.5 1.6-1.3 3.5-1.6 5.8z" fill="#4d0d0a"/><path d="M203.6 133.1c-2.1 1.1-4.1 2.7-5.6 4.8-2 2.7-3.2 6.2-3.2 10.4v16c-7.3.8-13.8.2-13.9.2h-.5v8.4c1.2.1 7.2.5 14.3-.3v37.1c0 2.3 1.9 4.2 4.2 4.2 2.3 0 4.2-1.9 4.2-4.2v-38.6c7.1-1.7 13.9-5 17.6-11 2.4-3.9 3.3-9.2 2.9-14.1-.5-5-2.4-9.8-5.9-12.3-2.2-1.6-4.8-2.3-7.4-2.3-2.2 0-4.5.6-6.7 1.7zm-.4 29.6v-14.4c0-2.3.6-4.1 1.6-5.5.7-1 1.6-1.8 2.6-2.3 1-.5 2-.8 3-.8.9 0 1.8.2 2.5.7 1.4 1 2.2 3.5 2.5 6.3.3 3.2-.2 6.7-1.7 9-2.1 3.5-6.1 5.6-10.5 7z" fill="#eb7d8a" fill-rule="evenodd" clip-rule="evenodd"/><path d="M125.3 134.9c1.3 1.3 1.4 3.4.1 4.7-1.3 1.3-3.4 1.4-4.7.1 0 0-9.9-9.3-5.7-21.2.6-1.7 2.5-2.7 4.3-2.1 1.7.6 2.7 2.5 2.1 4.2-2.8 7.9 3.9 14.3 3.9 14.3zM102.4 151.4c.9-1.6 2.9-2.2 4.5-1.3 1.6.9 2.2 2.9 1.3 4.5 0 0-4.4 7.9.1 15.1 1 1.6.5 3.6-1 4.6-1.6 1-3.6.5-4.6-1-6.7-10.6-.4-21.9-.3-21.9zM114.7 193.4c.2-1.8 1.8-3.2 3.7-3 1.8.2 3.2 1.8 3 3.7 0 0-.8 6.9 5.2 9.1 1.7.6 2.7 2.5 2 4.3-.6 1.7-2.5 2.7-4.3 2-10.9-4-9.6-16.1-9.6-16.1zM181.2 51.3c0 2.3-1.9 4.2-4.2 4.2-2.3 0-4.2-1.9-4.2-4.2V4.2c0-2.3 1.9-4.2 4.2-4.2 2.3 0 4.2 1.9 4.2 4.2v47.1zm80.1 35.4c-1.6 1.6-4.3 1.6-5.9 0-1.6-1.6-1.6-4.3 0-5.9l33.3-33.3c1.6-1.6 4.3-1.6 5.9 0 1.6 1.6 1.6 4.3 0 5.9l-33.3 33.3zM98.7 80.8c1.6 1.6 1.6 4.3 0 5.9-1.6 1.6-4.3 1.6-5.9 0L59.5 53.4c-1.6-1.6-1.6-4.3 0-5.9 1.6-1.6 4.3-1.6 5.9 0l33.3 33.3zm158.7 167.7c-1.6-1.6-1.6-4.3 0-5.9 1.6-1.6 4.3-1.6 5.9 0l33.3 33.3c1.6 1.6 1.6 4.3 0 5.9-1.6 1.6-4.3 1.6-5.9 0l-33.3-33.3zm-166.7-6c1.6-1.6 4.3-1.6 5.9 0 1.6 1.6 1.6 4.3 0 5.9l-33.3 33.3c-1.6 1.6-4.3 1.6-5.9 0-1.6-1.6-1.6-4.3 0-5.9l33.3-33.3zm202.1-74.1c-2.3 0-4.2-1.9-4.2-4.2 0-2.3 1.9-4.2 4.2-4.2h47.1c2.3 0 4.2 1.9 4.2 4.2 0 2.3-1.9 4.2-4.2 4.2h-47.1zM61.2 160c2.3 0 4.2 1.9 4.2 4.2 0 2.3-1.9 4.2-4.2 4.2H14.1c-2.3 0-4.2-1.9-4.2-4.2 0-2.3 1.9-4.2 4.2-4.2h47.1z" fill="#f5f5f2"/></g></svg>